# xmcd CD database file
#
# Track frame offsets:
#	150
#	20864
#	43594
#	65560
#	86389
#	106572
#	129593
#	150303
#	170376
#	193252
#	212554
#	235670
#	256316
#	278329
#	300186
#	322971
#
# Disc length: 4605 seconds
#
# Revision: 1
# Processed by: cddbd v1.5PL3 Copyright (c) Steve Scherf et al.
# Submitted via: CDex 1.50
#
DISCID=c311fb10
DTITLE=Victor Manuelle - Recopilacion Maria Cecilia
DYEAR=2004
DGENRE=Salsa
TTITLE0=Al igual que ayer
TTITLE1=Como duele
TTITLE2=Como una estrella
TTITLE3=Cuando tu amor se acabe
TTITLE4=De que me acusas
TTITLE5=Dile a ella
TTITLE6=El tonto que no te olvido
TTITLE7=Hay cariño
TTITLE8=He tratado 
TTITLE9=Instinto y deseo
TTITLE10=La razon de mi vida
TTITLE11=Ni un dia mas
TTITLE12=No hace falta nada
TTITLE13=Pensamiento y palabra
TTITLE14=Que te han dicho
TTITLE15=Se me rompe el alma
EXTD=YEAR: 2004
EXTT0=
EXTT1=
EXTT2=
EXTT3=
EXTT4=
EXTT5=
EXTT6=
EXTT7=
EXTT8=
EXTT9=
EXTT10=
EXTT11=
EXTT12=
EXTT13=
EXTT14=
EXTT15=
PLAYORDER=
